# xmcd
#
# Track frame offsets: 
#        150
#        2528
#        13937
#        48496
#        65367
#        75873
#        93604
#        110547
#        154311
#        178883
#        201429
#        219445
#        241633
#        261307
#        285080
#        302872
#
# Disc length: 4428 seconds
#
# Revision: 4
# Processed by: cddbd v1.5.2PL0 Copyright (c) Steve Scherf et al.
# Submitted via: ExactAudioCopyFreeDBPlugin 1.0
#
DISCID=d4114a10
DTITLE=Boogie Connection - Boogie Connection Live
DYEAR=1999
DGENRE=Blues
TTITLE0=Introduction
TTITLE1=San Francisco Bay Blues
TTITLE2=Ain't Nobody's Business
TTITLE3=I Want To Be Loved
TTITLE4=The Alley Boogie
TTITLE5=I Love The Life I Live
TTITLE6=Tricks Ain't Walk No More
TTITLE7=Misty Blue
TTITLE8=China Boogie (Shout For Joy)
TTITLE9=That's Why I Keep Drinkin'
TTITLE10=Baby What You Want Me To Do
TTITLE11=Suitcase Blues
TTITLE12=You're So Fine
TTITLE13=Boogie Woogie Stomp
TTITLE14=Hard Times
TTITLE15=Messin' Around
EXTD=
EXTT0=
EXTT1=
EXTT2=
EXTT3=
EXTT4=
EXTT5=
EXTT6=
EXTT7=
EXTT8=
EXTT9=
EXTT10=
EXTT11=
EXTT12=
EXTT13=
EXTT14=
EXTT15=
PLAYORDER=
